# xmcd
#
# Track frame offsets:
#	187
#	17377
#	34920
#	52600
#	71662
#	92020
#	111122
#	127277
#	144825
#	160505
#
# Disc length: 2402 seconds
#
# Revision: 1
# Processed by: cddbd v1.5PL3 Copyright (c) Steve Scherf et al.
# Submitted via: CDex 1.50Beta5
#
DISCID=7709600a
DTITLE=冨永みーな - a・ha! I’m 20
DYEAR=1900
DGENRE=Pop
TTITLE0=きまぐれCelebration
TTITLE1=恋は戦闘で
TTITLE2=唇が忘れない
TTITLE3=’CAUSE A WOMAN
TTITLE4=THROUGH THE NIGHT
TTITLE5=マーメイドはさよならの夏
TTITLE6=a・ha! I’m 20
TTITLE7=私だけTONIGHT
TTITLE8=LIFE IS SWEET
TTITLE9=ミステリアス・ユー
EXTD=
EXTT0=
EXTT1=
EXTT2=
EXTT3=
EXTT4=
EXTT5=
EXTT6=
EXTT7=
EXTT8=
EXTT9=
PLAYORDER=
